<?xml version="1.0" encoding="UTF-8"?><svg id="a" xmlns="http://www.w3.org/2000/svg" viewBox="0 0 64 64"><polygon points="11 47 15 47 49 47 53 47 53 11 11 11 11 47" fill="#8c5ec6"/><path d="M45,17c0-1.1,.9-2,2-2s2,.9,2,2v24c0,1.1-.9,2-2,2s-2-.9-2-2V17Z" fill="#8c5ec6"/><path d="M17,27h2.23c.23-1.02,.63-1.97,1.18-2.82l-1.6-1.6c-.78-.78-.78-2.05,0-2.83s2.05-.78,2.83,0l1.61,1.61c.83-.52,1.76-.91,2.75-1.13v-2.23c0-1.1,.9-2,2-2s2,.9,2,2v2.23c.99,.23,1.92,.62,2.76,1.14l1.61-1.61c.78-.78,2.05-.78,2.83,0s.78,2.05,0,2.83l-1.6,1.6c.54,.85,.94,1.8,1.17,2.81h2.23c1.1,0,2,.9,2,2s-.9,2-2,2h-2.23c-.23,1-.62,1.93-1.15,2.78l1.58,1.58c.78,.78,.77,2.05,0,2.83-.37,.37-.88,.58-1.4,.58h0c-.53,0-1.04-.2-1.41-.58l-1.58-1.58c-.85,.53-1.78,.93-2.79,1.16v2.23c0,1.1-.9,2-2,2s-2-.9-2-2v-2.23c-1-.23-1.93-.62-2.78-1.15l-1.58,1.58c-.38,.37-.89,.58-1.42,.58-1.1,0-2-.9-1.99-2.01,0-.53,.21-1.03,.58-1.4l1.58-1.58c-.53-.85-.93-1.78-1.16-2.79h-2.23c-1.1,0-2-.9-2-2s.9-2,2-2Z" fill="#8c5ec6"/><path d="M55,7H9c-1.1,0-2,.9-2,2V49c0,1.1,.9,2,2,2h4v6c0,1.1,.9,2,2,2H49c1.1,0,2-.9,2-2v-6h4c1.1,0,2-.9,2-2V9c0-1.1-.9-2-2-2Z" fill="#481a54"/><polygon points="53 47 49 47 15 47 11 47 11 11 53 11 53 47" fill="#8c5ec6"/><rect x="17" y="51" width="30" height="4" fill="#481a54"/><rect x="17" y="51" width="30" height="4" fill="#fff"/><path d="M47,43c1.1,0,2-.9,2-2V17c0-1.1-.9-2-2-2s-2,.9-2,2v24c0,1.1,.9,2,2,2Z" fill="#fff"/><path d="M17,31h2.23c.23,1.01,.63,1.94,1.16,2.79l-1.58,1.58c-.37,.37-.58,.88-.58,1.4,0,1.1,.89,2,1.99,2.01,.53,0,1.04-.21,1.42-.58l1.58-1.58c.84,.53,1.78,.92,2.78,1.15v2.23c0,1.1,.9,2,2,2s2-.9,2-2v-2.23c1.01-.23,1.94-.63,2.79-1.16l1.58,1.58c.37,.38,.88,.59,1.41,.59h0c.53-.01,1.03-.22,1.4-.59,.78-.78,.79-2.05,0-2.83l-1.58-1.58c.53-.84,.92-1.78,1.15-2.78h2.23c1.1,0,2-.9,2-2s-.9-2-2-2h-2.23c-.23-1.01-.63-1.96-1.17-2.81l1.6-1.6c.78-.78,.78-2.05,0-2.83s-2.05-.78-2.83,0l-1.61,1.61c-.84-.52-1.77-.91-2.76-1.14v-2.23c0-1.1-.9-2-2-2s-2,.9-2,2v2.23c-.99,.22-1.91,.61-2.75,1.13l-1.61-1.61c-.78-.78-2.05-.78-2.83,0s-.78,2.05,0,2.83l1.6,1.6c-.54,.85-.95,1.8-1.18,2.82h-2.23c-1.1,0-2,.9-2,2s.9,2,2,2Z" fill="#481a54"/><path d="M28,34c-1.38,0-2.63-.56-3.53-1.46h0c-.9-.91-1.46-2.16-1.46-3.54,0-2.76,2.24-5,5-5s5,2.24,5,5c0,1.38-.56,2.63-1.46,3.53h0c-.9,.91-2.15,1.47-3.54,1.47Z" fill="#4c2248"/><path d="M33,29c0-2.76-2.24-5-5-5s-5,2.24-5,5c0,1.38,.56,2.63,1.46,3.54h0c.9,.91,2.15,1.46,3.53,1.46s2.63-.56,3.54-1.46h0c.9-.91,1.46-2.16,1.46-3.54Z" fill="#fff"/></svg>