<?xml version="1.0" encoding="UTF-8"?><svg id="a" xmlns="http://www.w3.org/2000/svg" viewBox="0 0 64 64"><path d="M36,60h-8c-1.1,0-2-.9-2-2v-3.8c-1.91-.51-3.75-1.27-5.46-2.25l-2.68,2.68c-.78,.78-2.05,.78-2.83,0h0l-5.66-5.63c-.78-.78-.78-2.05,0-2.83h0l2.68-2.68c-.99-1.72-1.74-3.57-2.25-5.49h-3.8c-1.1,0-2-.9-2-2v-8c0-1.1,.9-2,2-2h3.8c.51-1.91,1.27-3.75,2.25-5.46l-2.68-2.68c-.78-.78-.78-2.05,0-2.83h0l5.63-5.66c.78-.78,2.05-.78,2.83,0h0l2.68,2.68c1.72-.99,3.57-1.74,5.49-2.25v-3.8c0-1.1,.9-2,2-2h8c1.1,0,2,.9,2,2v3.8c1.91,.51,3.75,1.27,5.46,2.25l2.68-2.68c.78-.78,2.05-.78,2.83,0h0l5.66,5.63c.78,.78,.78,2.05,0,2.83h0l-2.68,2.68c.99,1.72,1.74,3.57,2.25,5.49h3.8c1.1,0,2,.9,2,2v8c0,1.1-.9,2-2,2h-3.8c-.51,1.91-1.27,3.75-2.25,5.46l2.68,2.68c.78,.78,.78,2.05,0,2.83h0l-5.63,5.66c-.78,.78-2.05,.78-2.83,0h0l-2.68-2.68c-1.72,.99-3.57,1.74-5.49,2.25v3.8c0,1.1-.9,2-2,2Z" fill="#481a54"/><path d="M30,56h4v-3.39c-.02-.97,.67-1.82,1.62-2,2.51-.48,4.89-1.46,7-2.89,.79-.53,1.85-.43,2.53,.24l2.39,2.39,2.83-2.83-2.37-2.36c-.67-.68-.77-1.74-.24-2.53,1.43-2.11,2.41-4.49,2.89-7,.18-.95,1.03-1.64,2-1.62h3.35v-4.01h-3.39c-.97,.02-1.82-.67-2-1.62-.48-2.51-1.46-4.89-2.89-7-.53-.8-.41-1.87,.28-2.54l2.39-2.39-2.83-2.83-2.4,2.38c-.68,.67-1.74,.77-2.53,.24-2.11-1.43-4.49-2.41-7-2.89-.95-.18-1.64-1.03-1.62-2v-3.35h-4.01v3.39c.02,.97-.67,1.82-1.62,2-2.51,.48-4.89,1.46-7,2.89-.8,.53-1.87,.41-2.54-.28l-2.39-2.39-2.83,2.83,2.38,2.4c.67,.68,.77,1.74,.24,2.53-1.43,2.11-2.42,4.49-2.9,7-.18,.95-1.03,1.64-2,1.62h-3.34v4h3.39c.97-.02,1.82,.67,2,1.62,.48,2.51,1.47,4.89,2.9,7,.53,.81,.41,1.88-.29,2.55l-2.39,2.39,2.83,2.83,2.4-2.38c.68-.67,1.74-.77,2.53-.24,2.11,1.43,4.49,2.41,7,2.89,.95,.18,1.64,1.03,1.62,2v3.35Z" fill="#481a54"/><g><circle cx="32" cy="32" r="11" fill="#8c5ec6"/><circle cx="32" cy="32" r="7" fill="#8c5ec6"/><path d="M52.61,30c-.97,.02-1.82-.67-2-1.62-.48-2.51-1.46-4.89-2.89-7-.53-.8-.41-1.87,.28-2.54l2.39-2.39-2.83-2.83-2.4,2.38c-.68,.67-1.74,.77-2.53,.24-2.11-1.43-4.49-2.41-7-2.89-.95-.18-1.64-1.03-1.62-2v-3.35h-4.01v3.39c.02,.97-.67,1.82-1.62,2-2.51,.48-4.89,1.46-7,2.89-.8,.53-1.87,.41-2.54-.28l-2.39-2.39-2.83,2.83,2.38,2.4c.67,.68,.77,1.74,.24,2.53-1.43,2.11-2.42,4.49-2.9,7-.18,.95-1.03,1.64-2,1.62h-3.34v4h3.39c.97-.02,1.82,.67,2,1.62,.48,2.51,1.47,4.89,2.9,7,.53,.81,.41,1.88-.29,2.55l-2.39,2.39,2.83,2.83,2.4-2.38c.68-.67,1.74-.77,2.53-.24,2.11,1.43,4.49,2.41,7,2.89,.95,.18,1.64,1.03,1.62,2v3.35h4.01v-3.39c-.02-.97,.67-1.82,1.62-2,2.51-.48,4.89-1.46,7-2.89,.79-.53,1.85-.43,2.53,.24l2.39,2.39,2.83-2.83-2.37-2.36c-.67-.68-.77-1.74-.24-2.53,1.43-2.11,2.41-4.49,2.89-7,.18-.95,1.03-1.64,2-1.62h3.35v-4.01h-3.39Z" fill="#8c5ec6"/><circle cx="32" cy="32" r="15" fill="#8c5ec6"/><circle cx="32" cy="32" r="15" fill="#fff"/><circle cx="32" cy="32" r="11" fill="#8c5ec6"/><circle cx="32" cy="32" r="7" fill="#481a54"/><circle cx="32" cy="32" r="3" fill="#481a54"/></g><circle cx="32" cy="32" r="3" fill="#fff"/></svg>