<svg id="icon" xmlns="http://www.w3.org/2000/svg" viewBox="0 0 64 64"><defs><style>.cls-1{fill:#91db8b;}.cls-2{fill:#194e31;}.cls-3{fill:#fff;}</style></defs><path class="cls-1" d="M39.25,36A2,2,0,0,1,41,35h6.43L32,9.83,16.57,35H23a2,2,0,0,1,1.75,1,2,2,0,0,1-.05,2L16.61,51H30V37a2,2,0,0,1,4,0V51H47.39L39.3,38.06A2,2,0,0,1,39.25,36Z"/><path class="cls-1" d="M33.54,22.05,28.07,31a2,2,0,0,1-1.71,1,2,2,0,0,1-1-.29,2,2,0,0,1-.66-2.75L30.13,20a2,2,0,0,1,3.41,2.09Z"/><path class="cls-2" d="M44.61,39H51a2,2,0,0,0,1.71-3l-19-31a2,2,0,0,0-3.42,0l-19,31A2,2,0,0,0,13,39h6.39L11.3,51.94a2,2,0,0,0-.05,2A2,2,0,0,0,13,55H30v3a2,2,0,0,0,4,0V55H51a2,2,0,0,0,1.75-1,2,2,0,0,0,0-2Z"/><path class="cls-1" d="M34,51V37a2,2,0,0,0-4,0V51H16.61L24.7,38.06a2,2,0,0,0,.05-2A2,2,0,0,0,23,35H16.57L32,9.83,47.43,35H41a2,2,0,0,0-1.75,1,2,2,0,0,0,0,2L47.39,51Z"/><path class="cls-3" d="M32.88,19.3a2,2,0,0,0-2.75.66L24.66,28.9a2,2,0,0,0,.66,2.75,2,2,0,0,0,1,.29,2,2,0,0,0,1.71-1l5.47-8.94A2,2,0,0,0,32.88,19.3Z"/></svg>